<?xml version="1.0" encoding="utf-8" standalone="no"?>
<!DOCTYPE svg PUBLIC "-//W3C//DTD SVG 1.1//EN"
  "http://www.w3.org/Graphics/SVG/1.1/DTD/svg11.dtd">
<svg xmlns:xlink="http://www.w3.org/1999/xlink" width="460.8pt" height="345.6pt" viewBox="0 0 460.8 345.6" xmlns="http://www.w3.org/2000/svg" version="1.1">
 <metadata>
  <rdf:RDF xmlns:dc="http://purl.org/dc/elements/1.1/" xmlns:cc="http://creativecommons.org/ns#" xmlns:rdf="http://www.w3.org/1999/02/22-rdf-syntax-ns#">
   <cc:Work>
    <dc:type rdf:resource="http://purl.org/dc/dcmitype/StillImage"/>
    <dc:date>2024-04-25T16:33:37.811014</dc:date>
    <dc:format>image/svg+xml</dc:format>
    <dc:creator>
     <cc:Agent>
      <dc:title>Matplotlib v3.8.4, https://matplotlib.org/</dc:title>
     </cc:Agent>
    </dc:creator>
   </cc:Work>
  </rdf:RDF>
 </metadata>
 <defs>
  <style type="text/css">*{stroke-linejoin: round; stroke-linecap: butt}</style>
 </defs>
 <g id="figure_1">
  <g id="patch_1">
   <path d="M 0 345.6 
L 460.8 345.6 
L 460.8 0 
L 0 0 
z
" style="fill: #ffffff"/>
  </g>
  <g id="axes_1">
   <g id="patch_2">
    <path d="M 57.6 307.584 
L 414.72 307.584 
L 414.72 41.472 
L 57.6 41.472 
z
" style="fill: #ffffff"/>
   </g>
   <g id="matplotlib.axis_1">
    <g id="xtick_1">
     <g id="line2d_1">
      <defs>
       <path id="m40b693bcf5" d="M 0 0 
L 0 3.5 
" style="stroke: #000000; stroke-width: 0.8"/>
      </defs>
      <g>
       <use xlink:href="#m40b693bcf5" x="73.832727" y="307.584" style="stroke: #000000; stroke-width: 0.8"/>
      </g>
     </g>
     <g id="text_1">
      <!-- 0.00 -->
      <g transform="translate(58.24679 325.221812) scale(0.14 -0.14)">
       <defs>
        <path id="DejaVuSans-30" d="M 2034 4250 
Q 1547 4250 1301 3770 
Q 1056 3291 1056 2328 
Q 1056 1369 1301 889 
Q 1547 409 2034 409 
Q 2525 409 2770 889 
Q 3016 1369 3016 2328 
Q 3016 3291 2770 3770 
Q 2525 4250 2034 4250 
z
M 2034 4750 
Q 2819 4750 3233 4129 
Q 3647 3509 3647 2328 
Q 3647 1150 3233 529 
Q 2819 -91 2034 -91 
Q 1250 -91 836 529 
Q 422 1150 422 2328 
Q 422 3509 836 4129 
Q 1250 4750 2034 4750 
z
" transform="scale(0.015625)"/>
        <path id="DejaVuSans-2e" d="M 684 794 
L 1344 794 
L 1344 0 
L 684 0 
L 684 794 
z
" transform="scale(0.015625)"/>
       </defs>
       <use xlink:href="#DejaVuSans-30"/>
       <use xlink:href="#DejaVuSans-2e" x="63.623047"/>
       <use xlink:href="#DejaVuSans-30" x="95.410156"/>
       <use xlink:href="#DejaVuSans-30" x="159.033203"/>
      </g>
     </g>
    </g>
    <g id="xtick_2">
     <g id="line2d_2">
      <g>
       <use xlink:href="#m40b693bcf5" x="139.089922" y="307.584" style="stroke: #000000; stroke-width: 0.8"/>
      </g>
     </g>
     <g id="text_2">
      <!-- 0.02 -->
      <g transform="translate(123.503985 325.221812) scale(0.14 -0.14)">
       <defs>
        <path id="DejaVuSans-32" d="M 1228 531 
L 3431 531 
L 3431 0 
L 469 0 
L 469 531 
Q 828 903 1448 1529 
Q 2069 2156 2228 2338 
Q 2531 2678 2651 2914 
Q 2772 3150 2772 3378 
Q 2772 3750 2511 3984 
Q 2250 4219 1831 4219 
Q 1534 4219 1204 4116 
Q 875 4013 500 3803 
L 500 4441 
Q 881 4594 1212 4672 
Q 1544 4750 1819 4750 
Q 2544 4750 2975 4387 
Q 3406 4025 3406 3419 
Q 3406 3131 3298 2873 
Q 3191 2616 2906 2266 
Q 2828 2175 2409 1742 
Q 1991 1309 1228 531 
z
" transform="scale(0.015625)"/>
       </defs>
       <use xlink:href="#DejaVuSans-30"/>
       <use xlink:href="#DejaVuSans-2e" x="63.623047"/>
       <use xlink:href="#DejaVuSans-30" x="95.410156"/>
       <use xlink:href="#DejaVuSans-32" x="159.033203"/>
      </g>
     </g>
    </g>
    <g id="xtick_3">
     <g id="line2d_3">
      <g>
       <use xlink:href="#m40b693bcf5" x="204.347117" y="307.584" style="stroke: #000000; stroke-width: 0.8"/>
      </g>
     </g>
     <g id="text_3">
      <!-- 0.04 -->
      <g transform="translate(188.76118 325.221812) scale(0.14 -0.14)">
       <defs>
        <path id="DejaVuSans-34" d="M 2419 4116 
L 825 1625 
L 2419 1625 
L 2419 4116 
z
M 2253 4666 
L 3047 4666 
L 3047 1625 
L 3713 1625 
L 3713 1100 
L 3047 1100 
L 3047 0 
L 2419 0 
L 2419 1100 
L 313 1100 
L 313 1709 
L 2253 4666 
z
" transform="scale(0.015625)"/>
       </defs>
       <use xlink:href="#DejaVuSans-30"/>
       <use xlink:href="#DejaVuSans-2e" x="63.623047"/>
       <use xlink:href="#DejaVuSans-30" x="95.410156"/>
       <use xlink:href="#DejaVuSans-34" x="159.033203"/>
      </g>
     </g>
    </g>
    <g id="xtick_4">
     <g id="line2d_4">
      <g>
       <use xlink:href="#m40b693bcf5" x="269.604312" y="307.584" style="stroke: #000000; stroke-width: 0.8"/>
      </g>
     </g>
     <g id="text_4">
      <!-- 0.06 -->
      <g transform="translate(254.018375 325.221812) scale(0.14 -0.14)">
       <defs>
        <path id="DejaVuSans-36" d="M 2113 2584 
Q 1688 2584 1439 2293 
Q 1191 2003 1191 1497 
Q 1191 994 1439 701 
Q 1688 409 2113 409 
Q 2538 409 2786 701 
Q 3034 994 3034 1497 
Q 3034 2003 2786 2293 
Q 2538 2584 2113 2584 
z
M 3366 4563 
L 3366 3988 
Q 3128 4100 2886 4159 
Q 2644 4219 2406 4219 
Q 1781 4219 1451 3797 
Q 1122 3375 1075 2522 
Q 1259 2794 1537 2939 
Q 1816 3084 2150 3084 
Q 2853 3084 3261 2657 
Q 3669 2231 3669 1497 
Q 3669 778 3244 343 
Q 2819 -91 2113 -91 
Q 1303 -91 875 529 
Q 447 1150 447 2328 
Q 447 3434 972 4092 
Q 1497 4750 2381 4750 
Q 2619 4750 2861 4703 
Q 3103 4656 3366 4563 
z
" transform="scale(0.015625)"/>
       </defs>
       <use xlink:href="#DejaVuSans-30"/>
       <use xlink:href="#DejaVuSans-2e" x="63.623047"/>
       <use xlink:href="#DejaVuSans-30" x="95.410156"/>
       <use xlink:href="#DejaVuSans-36" x="159.033203"/>
      </g>
     </g>
    </g>
    <g id="xtick_5">
     <g id="line2d_5">
      <g>
       <use xlink:href="#m40b693bcf5" x="334.861508" y="307.584" style="stroke: #000000; stroke-width: 0.8"/>
      </g>
     </g>
     <g id="text_5">
      <!-- 0.08 -->
      <g transform="translate(319.27557 325.221812) scale(0.14 -0.14)">
       <defs>
        <path id="DejaVuSans-38" d="M 2034 2216 
Q 1584 2216 1326 1975 
Q 1069 1734 1069 1313 
Q 1069 891 1326 650 
Q 1584 409 2034 409 
Q 2484 409 2743 651 
Q 3003 894 3003 1313 
Q 3003 1734 2745 1975 
Q 2488 2216 2034 2216 
z
M 1403 2484 
Q 997 2584 770 2862 
Q 544 3141 544 3541 
Q 544 4100 942 4425 
Q 1341 4750 2034 4750 
Q 2731 4750 3128 4425 
Q 3525 4100 3525 3541 
Q 3525 3141 3298 2862 
Q 3072 2584 2669 2484 
Q 3125 2378 3379 2068 
Q 3634 1759 3634 1313 
Q 3634 634 3220 271 
Q 2806 -91 2034 -91 
Q 1263 -91 848 271 
Q 434 634 434 1313 
Q 434 1759 690 2068 
Q 947 2378 1403 2484 
z
M 1172 3481 
Q 1172 3119 1398 2916 
Q 1625 2713 2034 2713 
Q 2441 2713 2670 2916 
Q 2900 3119 2900 3481 
Q 2900 3844 2670 4047 
Q 2441 4250 2034 4250 
Q 1625 4250 1398 4047 
Q 1172 3844 1172 3481 
z
" transform="scale(0.015625)"/>
       </defs>
       <use xlink:href="#DejaVuSans-30"/>
       <use xlink:href="#DejaVuSans-2e" x="63.623047"/>
       <use xlink:href="#DejaVuSans-30" x="95.410156"/>
       <use xlink:href="#DejaVuSans-38" x="159.033203"/>
      </g>
     </g>
    </g>
    <g id="xtick_6">
     <g id="line2d_6">
      <g>
       <use xlink:href="#m40b693bcf5" x="400.118703" y="307.584" style="stroke: #000000; stroke-width: 0.8"/>
      </g>
     </g>
     <g id="text_6">
      <!-- 0.10 -->
      <g transform="translate(384.532765 325.221812) scale(0.14 -0.14)">
       <defs>
        <path id="DejaVuSans-31" d="M 794 531 
L 1825 531 
L 1825 4091 
L 703 3866 
L 703 4441 
L 1819 4666 
L 2450 4666 
L 2450 531 
L 3481 531 
L 3481 0 
L 794 0 
L 794 531 
z
" transform="scale(0.015625)"/>
       </defs>
       <use xlink:href="#DejaVuSans-30"/>
       <use xlink:href="#DejaVuSans-2e" x="63.623047"/>
       <use xlink:href="#DejaVuSans-31" x="95.410156"/>
       <use xlink:href="#DejaVuSans-30" x="159.033203"/>
      </g>
     </g>
    </g>
    <g id="text_7">
     <!-- t -->
     <g transform="translate(233.415781 342.771187) scale(0.14 -0.14)">
      <defs>
       <path id="DejaVuSans-74" d="M 1172 4494 
L 1172 3500 
L 2356 3500 
L 2356 3053 
L 1172 3053 
L 1172 1153 
Q 1172 725 1289 603 
Q 1406 481 1766 481 
L 2356 481 
L 2356 0 
L 1766 0 
Q 1100 0 847 248 
Q 594 497 594 1153 
L 594 3053 
L 172 3053 
L 172 3500 
L 594 3500 
L 594 4494 
L 1172 4494 
z
" transform="scale(0.015625)"/>
      </defs>
      <use xlink:href="#DejaVuSans-74"/>
     </g>
    </g>
   </g>
   <g id="matplotlib.axis_2">
    <g id="ytick_1">
     <g id="line2d_7">
      <defs>
       <path id="m2017a8823b" d="M 0 0 
L -3.5 0 
" style="stroke: #000000; stroke-width: 0.8"/>
      </defs>
      <g>
       <use xlink:href="#m2017a8823b" x="57.6" y="295.488" style="stroke: #000000; stroke-width: 0.8"/>
      </g>
     </g>
     <g id="text_8">
      <!-- 0 -->
      <g transform="translate(41.6925 300.806906) scale(0.14 -0.14)">
       <use xlink:href="#DejaVuSans-30"/>
      </g>
     </g>
    </g>
    <g id="ytick_2">
     <g id="line2d_8">
      <g>
       <use xlink:href="#m2017a8823b" x="57.6" y="242.178664" style="stroke: #000000; stroke-width: 0.8"/>
      </g>
     </g>
     <g id="text_9">
      <!-- 2 -->
      <g transform="translate(41.6925 247.49757) scale(0.14 -0.14)">
       <use xlink:href="#DejaVuSans-32"/>
      </g>
     </g>
    </g>
    <g id="ytick_3">
     <g id="line2d_9">
      <g>
       <use xlink:href="#m2017a8823b" x="57.6" y="188.869328" style="stroke: #000000; stroke-width: 0.8"/>
      </g>
     </g>
     <g id="text_10">
      <!-- 4 -->
      <g transform="translate(41.6925 194.188234) scale(0.14 -0.14)">
       <use xlink:href="#DejaVuSans-34"/>
      </g>
     </g>
    </g>
    <g id="ytick_4">
     <g id="line2d_10">
      <g>
       <use xlink:href="#m2017a8823b" x="57.6" y="135.559992" style="stroke: #000000; stroke-width: 0.8"/>
      </g>
     </g>
     <g id="text_11">
      <!-- 6 -->
      <g transform="translate(41.6925 140.878898) scale(0.14 -0.14)">
       <use xlink:href="#DejaVuSans-36"/>
      </g>
     </g>
    </g>
    <g id="ytick_5">
     <g id="line2d_11">
      <g>
       <use xlink:href="#m2017a8823b" x="57.6" y="82.250656" style="stroke: #000000; stroke-width: 0.8"/>
      </g>
     </g>
     <g id="text_12">
      <!-- 8 -->
      <g transform="translate(41.6925 87.569562) scale(0.14 -0.14)">
       <use xlink:href="#DejaVuSans-38"/>
      </g>
     </g>
    </g>
    <g id="text_13">
     <!-- P -->
     <g transform="translate(34.780938 178.748781) rotate(-90) scale(0.14 -0.14)">
      <defs>
       <path id="DejaVuSans-50" d="M 1259 4147 
L 1259 2394 
L 2053 2394 
Q 2494 2394 2734 2622 
Q 2975 2850 2975 3272 
Q 2975 3691 2734 3919 
Q 2494 4147 2053 4147 
L 1259 4147 
z
M 628 4666 
L 2053 4666 
Q 2838 4666 3239 4311 
Q 3641 3956 3641 3272 
Q 3641 2581 3239 2228 
Q 2838 1875 2053 1875 
L 1259 1875 
L 1259 0 
L 628 0 
L 628 4666 
z
" transform="scale(0.015625)"/>
      </defs>
      <use xlink:href="#DejaVuSans-50"/>
     </g>
    </g>
   </g>
   <g id="line2d_12">
    <path d="M 73.832727 295.488 
L 81.989877 279.256274 
L 86.884166 270.035057 
L 90.147026 264.260114 
L 93.409886 258.863176 
L 96.672746 253.905994 
L 99.935605 249.443194 
L 103.198465 245.521424 
L 106.461325 242.178664 
L 108.092755 240.733773 
L 109.724185 239.443679 
L 111.355614 238.310475 
L 112.987044 237.335644 
L 114.618474 236.520052 
L 116.249904 235.863948 
L 117.881334 235.366972 
L 119.512764 235.028159 
L 121.144194 234.845945 
L 122.775624 234.818181 
L 124.407053 234.942146 
L 126.038483 235.214566 
L 127.669913 235.631626 
L 129.301343 236.188999 
L 130.932773 236.881863 
L 132.564203 237.704929 
L 135.827063 239.718344 
L 139.089922 242.178664 
L 142.352782 245.02974 
L 145.615642 248.210942 
L 148.878502 251.658303 
L 153.772791 257.18348 
L 168.45566 274.229809 
L 173.34995 279.380874 
L 176.61281 282.515137 
L 179.875669 285.362235 
L 183.138529 287.889408 
L 186.401389 290.071278 
L 189.664249 291.890085 
L 192.927108 293.335766 
L 196.189968 294.405885 
L 199.452828 295.105418 
L 202.715688 295.446396 
L 205.978547 295.447423 
L 209.241407 295.133074 
L 212.504267 294.533193 
L 215.767127 293.682102 
L 219.029986 292.617753 
L 223.924276 290.710849 
L 230.449995 287.813866 
L 240.238575 283.400009 
L 245.132864 281.448012 
L 248.395724 280.317273 
L 251.658584 279.353875 
L 254.921444 278.578798 
L 258.184303 278.00782 
L 261.447163 277.65135 
L 264.710023 277.514371 
L 267.972883 277.596515 
L 271.235742 277.892242 
L 274.498602 278.391133 
L 277.761462 279.078282 
L 281.024322 279.934769 
L 285.918611 281.487272 
L 290.812901 283.282979 
L 300.60148 287.215779 
L 307.1272 289.772683 
L 312.021489 291.500684 
L 316.915779 292.979585 
L 321.810069 294.148371 
L 325.072928 294.733407 
L 328.335788 295.153494 
L 331.598648 295.404921 
L 334.861508 295.488 
L 338.124367 295.406972 
L 341.387227 295.169812 
L 346.281517 294.547203 
L 351.175806 293.651066 
L 356.070096 292.545193 
L 364.227245 290.4352 
L 374.015825 287.90291 
L 378.910114 286.807424 
L 383.804404 285.908555 
L 388.698693 285.25349 
L 393.592983 284.874783 
L 398.487273 284.789072 
L 398.487273 284.789072 
" clip-path="url(#pa976367f61)" style="fill: none; stroke: #1f77b4; stroke-width: 1.5; stroke-linecap: square"/>
   </g>
   <g id="line2d_13">
    <path d="M 73.832727 295.488 
L 78.727017 256.846827 
L 81.989877 233.191384 
L 83.621307 222.429759 
L 85.252736 212.547013 
L 86.884166 203.651692 
L 88.515596 195.836237 
L 90.147026 189.175632 
L 91.778456 183.726377 
L 93.409886 179.525814 
L 95.041316 176.591794 
L 96.672746 174.922693 
L 98.304175 174.49778 
L 99.935605 175.277903 
L 101.567035 177.206488 
L 103.198465 180.210824 
L 104.829895 184.203605 
L 106.461325 189.084691 
L 108.092755 194.743068 
L 109.724185 201.058954 
L 112.987044 215.153694 
L 122.775624 259.78547 
L 124.407053 266.303316 
L 126.038483 272.292259 
L 127.669913 277.679283 
L 129.301343 282.405565 
L 130.932773 286.427144 
L 132.564203 289.715292 
L 134.195633 292.256573 
L 135.827063 294.052609 
L 137.458492 295.119548 
L 139.089922 295.487256 
L 140.721352 295.198253 
L 142.352782 294.306421 
L 143.984212 292.875505 
L 145.615642 290.977467 
L 147.247072 288.690705 
L 148.878502 286.098195 
L 152.141361 280.339342 
L 157.035651 271.536651 
L 158.667081 268.87313 
L 160.298511 266.458765 
L 161.929941 264.349873 
L 163.56137 262.593426 
L 165.1928 261.22636 
L 166.82423 260.275138 
L 168.45566 259.755535 
L 170.08709 259.672663 
L 171.71852 260.021219 
L 173.34995 260.785951 
L 174.98138 261.942317 
L 176.61281 263.457329 
L 178.244239 265.290548 
L 179.875669 267.39522 
L 183.138529 272.207822 
L 191.295678 285.073349 
L 192.927108 287.33985 
L 194.558538 289.389477 
L 196.189968 291.183752 
L 197.821398 292.691073 
L 199.452828 293.887287 
L 201.084258 294.756091 
L 202.715688 295.28923 
L 204.347117 295.486511 
L 205.978547 295.355619 
L 207.609977 294.911754 
L 209.241407 294.177105 
L 210.872837 293.180156 
L 212.504267 291.954872 
L 214.135697 290.539768 
L 217.398556 287.310733 
L 223.924276 280.527322 
L 225.555706 279.021099 
L 227.187136 277.669182 
L 228.818566 276.503702 
L 230.449995 275.5516 
L 232.081425 274.834104 
L 233.712855 274.366362 
L 235.344285 274.157214 
L 236.975715 274.209118 
L 238.607145 274.51822 
L 240.238575 275.074578 
L 241.870005 275.862506 
L 243.501434 276.861057 
L 245.132864 278.044612 
L 248.395724 280.845092 
L 253.290014 285.606377 
L 256.552873 288.724933 
L 259.815733 291.472097 
L 261.447163 292.631056 
L 263.078593 293.614181 
L 264.710023 294.402533 
L 266.341453 294.982158 
L 267.972883 295.344348 
L 269.604312 295.485767 
L 271.235742 295.408453 
L 272.867172 295.119681 
L 274.498602 294.631701 
L 276.130032 293.961363 
L 277.761462 293.129631 
L 281.024322 291.082896 
L 285.918611 287.493625 
L 289.181471 285.1185 
L 292.444331 283.036919 
L 294.075761 282.171158 
L 295.70719 281.450576 
L 297.33862 280.891866 
L 298.97005 280.507551 
L 300.60148 280.305753 
L 302.23291 280.290069 
L 303.86434 280.459548 
L 305.49577 280.808782 
L 307.1272 281.328097 
L 308.75863 282.003844 
L 312.021489 283.752492 
L 315.284349 285.882253 
L 323.441498 291.506642 
L 326.704358 293.331098 
L 328.335788 294.063596 
L 329.967218 294.654899 
L 331.598648 295.093406 
L 333.230078 295.371364 
L 334.861508 295.485023 
L 336.492937 295.434668 
L 338.124367 295.224576 
L 339.755797 294.862854 
L 341.387227 294.361195 
L 344.650087 293.000716 
L 347.912947 291.29404 
L 356.070096 286.718704 
L 359.332956 285.248011 
L 360.964386 284.668468 
L 362.595815 284.211951 
L 364.227245 283.888969 
L 365.858675 283.706668 
L 367.490105 283.668705 
L 369.121535 283.775199 
L 370.752965 284.022769 
L 372.384395 284.404652 
L 375.647254 285.528664 
L 378.910114 287.034818 
L 383.804404 289.68339 
L 388.698693 292.294464 
L 391.961553 293.743735 
L 395.224413 294.804517 
L 396.855843 295.159421 
L 398.487273 295.387226 
L 398.487273 295.387226 
" clip-path="url(#pa976367f61)" style="fill: none; stroke: #ff7f0e; stroke-width: 1.5; stroke-linecap: square"/>
   </g>
   <g id="line2d_14">
    <path d="M 73.832727 295.488 
L 77.095587 242.001483 
L 80.358447 193.011026 
L 81.989877 171.294699 
L 83.621307 151.791291 
L 85.252736 134.625718 
L 86.884166 119.82514 
L 88.515596 107.346038 
L 90.147026 97.10523 
L 91.778456 89.009043 
L 93.409886 82.975655 
L 95.041316 78.947242 
L 96.672746 76.890739 
L 98.304175 76.788283 
L 99.935605 78.620327 
L 101.567035 82.345629 
L 103.198465 87.882674 
L 104.829895 95.096533 
L 106.461325 103.793862 
L 108.092755 113.72704 
L 111.355614 136.11996 
L 116.249904 171.424214 
L 119.512764 193.134799 
L 121.144194 202.948093 
L 122.775624 211.953962 
L 124.407053 220.111203 
L 126.038483 227.40232 
L 127.669913 233.826011 
L 129.301343 239.392443 
L 130.932773 244.121577 
L 132.564203 248.043994 
L 134.195633 251.203108 
L 135.827063 253.657398 
L 137.458492 255.48145 
L 139.089922 256.764998 
L 140.721352 257.609719 
L 142.352782 258.124122 
L 143.984212 258.417317 
L 148.878502 258.942596 
L 150.509931 259.253171 
L 152.141361 259.715129 
L 153.772791 260.352518 
L 155.404221 261.173661 
L 157.035651 262.172737 
L 160.298511 264.618182 
L 166.82423 270.081739 
L 168.45566 271.218439 
L 170.08709 272.132266 
L 171.71852 272.765982 
L 173.34995 273.074558 
L 174.98138 273.0286 
L 176.61281 272.616101 
L 178.244239 271.842266 
L 179.875669 270.727557 
L 181.507099 269.304459 
L 183.138529 267.613745 
L 184.769959 265.701075 
L 188.032819 261.40425 
L 194.558538 252.430122 
L 196.189968 250.478527 
L 197.821398 248.794796 
L 199.452828 247.458966 
L 201.084258 246.545888 
L 202.715688 246.118775 
L 204.347117 246.223056 
L 205.978547 246.881652 
L 207.609977 248.09255 
L 209.241407 249.829127 
L 210.872837 252.043178 
L 212.504267 254.67005 
L 214.135697 257.634905 
L 217.398556 264.264644 
L 225.555706 281.619255 
L 227.187136 284.714639 
L 228.818566 287.534684 
L 230.449995 290.01159 
L 232.081425 292.079965 
L 233.712855 293.6819 
L 235.344285 294.772603 
L 236.975715 295.325529 
L 238.607145 295.335974 
L 240.238575 294.822379 
L 241.870005 293.825058 
L 243.501434 292.402515 
L 245.132864 290.626033 
L 246.764294 288.573463 
L 250.027154 283.949799 
L 254.921444 276.722142 
L 258.184303 272.325476 
L 259.815733 270.384961 
L 261.447163 268.670654 
L 263.078593 267.221282 
L 264.710023 266.071679 
L 266.341453 265.249763 
L 267.972883 264.773286 
L 269.604312 264.647094 
L 271.235742 264.86153 
L 272.867172 265.392403 
L 274.498602 266.202601 
L 276.130032 267.245118 
L 279.392892 269.813496 
L 287.550041 276.77691 
L 290.812901 279.068849 
L 292.444331 280.033854 
L 294.075761 280.866237 
L 295.70719 281.561588 
L 297.33862 282.119647 
L 298.97005 282.544918 
L 302.23291 283.041164 
L 305.49577 283.186828 
L 313.652919 283.259461 
L 316.915779 283.585394 
L 320.178639 284.188388 
L 323.441498 285.042496 
L 331.598648 287.475521 
L 334.861508 288.046237 
L 336.492937 288.139606 
L 338.124367 288.080186 
L 339.755797 287.857959 
L 341.387227 287.470502 
L 343.018657 286.922612 
L 344.650087 286.225232 
L 347.912947 284.447313 
L 351.175806 282.290555 
L 359.332956 276.463303 
L 360.964386 275.456143 
L 362.595815 274.585445 
L 364.227245 273.889365 
L 365.858675 273.402866 
L 367.490105 273.154616 
L 369.121535 273.164193 
L 370.752965 273.440118 
L 372.384395 273.979065 
L 374.015825 274.766388 
L 375.647254 275.777864 
L 377.278684 276.982287 
L 380.541544 279.827825 
L 385.435834 284.659056 
L 390.330123 289.401387 
L 393.592983 292.093545 
L 395.224413 293.196821 
L 396.855843 294.093972 
L 398.487273 294.756972 
L 398.487273 294.756972 
" clip-path="url(#pa976367f61)" style="fill: none; stroke: #2ca02c; stroke-width: 1.5; stroke-linecap: square"/>
   </g>
   <g id="line2d_15">
    <path d="M 73.832727 295.488 
L 78.727017 218.202527 
L 81.989877 170.893775 
L 83.621307 149.373434 
L 85.252736 129.612131 
L 86.884166 111.826868 
L 88.515596 96.20235 
L 90.147026 82.888287 
L 91.778456 71.997372 
L 93.409886 63.603937 
L 95.041316 57.743322 
L 96.672746 54.411935 
L 98.304175 53.568 
L 99.935605 55.132953 
L 101.567035 58.993454 
L 103.198465 65.003969 
L 104.829895 72.989847 
L 106.461325 82.750857 
L 108.092755 94.065087 
L 109.724185 106.693152 
L 112.987044 134.872608 
L 122.775624 224.103304 
L 124.407053 237.13507 
L 126.038483 249.109661 
L 127.669913 259.880999 
L 129.301343 269.331362 
L 130.932773 277.372725 
L 132.564203 283.947519 
L 134.195633 289.028763 
L 135.827063 292.619606 
L 137.458492 294.752277 
L 139.089922 295.486473 
L 140.721352 294.907236 
L 142.352782 293.122358 
L 143.984212 290.259397 
L 145.615642 286.462358 
L 147.247072 281.88813 
L 148.878502 276.702757 
L 152.141361 265.185711 
L 157.035651 247.585168 
L 158.667081 242.260653 
L 160.298511 237.434765 
L 161.929941 233.220018 
L 163.56137 229.710213 
L 165.1928 226.979089 
L 166.82423 225.079433 
L 168.45566 224.042674 
L 170.08709 223.878936 
L 171.71852 224.577541 
L 173.34995 226.107943 
L 174.98138 228.42105 
L 176.61281 231.450905 
L 178.244239 235.116681 
L 179.875669 239.324937 
L 183.138529 248.947051 
L 191.295678 274.669079 
L 192.927108 279.200519 
L 194.558538 283.298333 
L 196.189968 286.885548 
L 197.821398 289.898926 
L 199.452828 292.290136 
L 201.084258 294.026539 
L 202.715688 295.091608 
L 204.347117 295.484947 
L 205.978547 295.221932 
L 207.609977 294.332994 
L 209.241407 292.862546 
L 210.872837 290.867612 
L 212.504267 288.416183 
L 214.135697 285.585351 
L 217.398556 279.126975 
L 223.924276 265.56407 
L 225.555706 262.553471 
L 227.187136 259.851717 
L 228.818566 257.52299 
L 230.449995 255.621076 
L 232.081425 254.188339 
L 233.712855 253.25498 
L 235.344285 252.838597 
L 236.975715 252.944032 
L 238.607145 253.563529 
L 240.238575 254.677167 
L 241.870005 256.253564 
L 243.501434 258.250833 
L 245.132864 260.617761 
L 246.764294 263.295175 
L 250.027154 269.314322 
L 256.552873 281.971441 
L 258.184303 284.842023 
L 259.815733 287.463302 
L 261.447163 289.780014 
L 263.078593 291.745072 
L 264.710023 293.320588 
L 266.341453 294.47864 
L 267.972883 295.201807 
L 269.604312 295.48342 
L 271.235742 295.327565 
L 272.867172 294.748813 
L 274.498602 293.771698 
L 276.130032 292.42996 
L 277.761462 290.76558 
L 279.392892 288.827618 
L 282.655751 284.354633 
L 289.181471 274.744454 
L 290.812901 272.563557 
L 292.444331 270.584386 
L 294.075761 268.854713 
L 295.70719 267.415511 
L 297.33862 266.300086 
L 298.97005 265.533406 
L 300.60148 265.131644 
L 302.23291 265.101923 
L 303.86434 265.442288 
L 305.49577 266.141883 
L 307.1272 267.181336 
L 308.75863 268.533337 
L 310.390059 270.163393 
L 312.021489 272.030743 
L 315.284349 276.289353 
L 321.810069 285.430219 
L 325.072928 289.464198 
L 326.704358 291.180017 
L 328.335788 292.643854 
L 329.967218 293.825284 
L 331.598648 294.7011 
L 333.230078 295.255804 
L 334.861508 295.481894 
L 336.492937 295.379958 
L 338.124367 294.958567 
L 339.755797 294.233964 
L 341.387227 293.229574 
L 343.018657 291.975338 
L 344.650087 290.506898 
L 347.912947 287.092684 
L 356.070096 277.944985 
L 357.701526 276.382868 
L 359.332956 275.006673 
L 360.964386 273.849359 
L 362.595815 272.938169 
L 364.227245 272.294049 
L 365.858675 271.931225 
L 367.490105 271.856947 
L 369.121535 272.071398 
L 370.752965 272.567771 
L 372.384395 273.332509 
L 374.015825 274.345704 
L 375.647254 275.581637 
L 377.278684 277.009456 
L 380.541544 280.296488 
L 388.698693 289.108862 
L 390.330123 290.639627 
L 391.961553 292.005231 
L 393.592983 293.175294 
L 395.224413 294.124484 
L 396.855843 294.833097 
L 398.487273 295.287491 
L 398.487273 295.287491 
" clip-path="url(#pa976367f61)" style="fill: none; stroke: #d62728; stroke-width: 1.5; stroke-linecap: square"/>
   </g>
   <g id="patch_3">
    <path d="M 57.6 307.584 
L 57.6 41.472 
" style="fill: none; stroke: #000000; stroke-width: 0.8; stroke-linejoin: miter; stroke-linecap: square"/>
   </g>
   <g id="patch_4">
    <path d="M 414.72 307.584 
L 414.72 41.472 
" style="fill: none; stroke: #000000; stroke-width: 0.8; stroke-linejoin: miter; stroke-linecap: square"/>
   </g>
   <g id="patch_5">
    <path d="M 57.6 307.584 
L 414.72 307.584 
" style="fill: none; stroke: #000000; stroke-width: 0.8; stroke-linejoin: miter; stroke-linecap: square"/>
   </g>
   <g id="patch_6">
    <path d="M 57.6 41.472 
L 414.72 41.472 
" style="fill: none; stroke: #000000; stroke-width: 0.8; stroke-linejoin: miter; stroke-linecap: square"/>
   </g>
   <g id="text_14">
    <!-- t = 0.1, delta_t=0.0005 -->
    <g transform="translate(165.039375 35.472) scale(0.12 -0.12)">
     <defs>
      <path id="DejaVuSans-20" transform="scale(0.015625)"/>
      <path id="DejaVuSans-3d" d="M 678 2906 
L 4684 2906 
L 4684 2381 
L 678 2381 
L 678 2906 
z
M 678 1631 
L 4684 1631 
L 4684 1100 
L 678 1100 
L 678 1631 
z
" transform="scale(0.015625)"/>
      <path id="DejaVuSans-2c" d="M 750 794 
L 1409 794 
L 1409 256 
L 897 -744 
L 494 -744 
L 750 256 
L 750 794 
z
" transform="scale(0.015625)"/>
      <path id="DejaVuSans-64" d="M 2906 2969 
L 2906 4863 
L 3481 4863 
L 3481 0 
L 2906 0 
L 2906 525 
Q 2725 213 2448 61 
Q 2172 -91 1784 -91 
Q 1150 -91 751 415 
Q 353 922 353 1747 
Q 353 2572 751 3078 
Q 1150 3584 1784 3584 
Q 2172 3584 2448 3432 
Q 2725 3281 2906 2969 
z
M 947 1747 
Q 947 1113 1208 752 
Q 1469 391 1925 391 
Q 2381 391 2643 752 
Q 2906 1113 2906 1747 
Q 2906 2381 2643 2742 
Q 2381 3103 1925 3103 
Q 1469 3103 1208 2742 
Q 947 2381 947 1747 
z
" transform="scale(0.015625)"/>
      <path id="DejaVuSans-65" d="M 3597 1894 
L 3597 1613 
L 953 1613 
Q 991 1019 1311 708 
Q 1631 397 2203 397 
Q 2534 397 2845 478 
Q 3156 559 3463 722 
L 3463 178 
Q 3153 47 2828 -22 
Q 2503 -91 2169 -91 
Q 1331 -91 842 396 
Q 353 884 353 1716 
Q 353 2575 817 3079 
Q 1281 3584 2069 3584 
Q 2775 3584 3186 3129 
Q 3597 2675 3597 1894 
z
M 3022 2063 
Q 3016 2534 2758 2815 
Q 2500 3097 2075 3097 
Q 1594 3097 1305 2825 
Q 1016 2553 972 2059 
L 3022 2063 
z
" transform="scale(0.015625)"/>
      <path id="DejaVuSans-6c" d="M 603 4863 
L 1178 4863 
L 1178 0 
L 603 0 
L 603 4863 
z
" transform="scale(0.015625)"/>
      <path id="DejaVuSans-61" d="M 2194 1759 
Q 1497 1759 1228 1600 
Q 959 1441 959 1056 
Q 959 750 1161 570 
Q 1363 391 1709 391 
Q 2188 391 2477 730 
Q 2766 1069 2766 1631 
L 2766 1759 
L 2194 1759 
z
M 3341 1997 
L 3341 0 
L 2766 0 
L 2766 531 
Q 2569 213 2275 61 
Q 1981 -91 1556 -91 
Q 1019 -91 701 211 
Q 384 513 384 1019 
Q 384 1609 779 1909 
Q 1175 2209 1959 2209 
L 2766 2209 
L 2766 2266 
Q 2766 2663 2505 2880 
Q 2244 3097 1772 3097 
Q 1472 3097 1187 3025 
Q 903 2953 641 2809 
L 641 3341 
Q 956 3463 1253 3523 
Q 1550 3584 1831 3584 
Q 2591 3584 2966 3190 
Q 3341 2797 3341 1997 
z
" transform="scale(0.015625)"/>
      <path id="DejaVuSans-5f" d="M 3263 -1063 
L 3263 -1509 
L -63 -1509 
L -63 -1063 
L 3263 -1063 
z
" transform="scale(0.015625)"/>
      <path id="DejaVuSans-35" d="M 691 4666 
L 3169 4666 
L 3169 4134 
L 1269 4134 
L 1269 2991 
Q 1406 3038 1543 3061 
Q 1681 3084 1819 3084 
Q 2600 3084 3056 2656 
Q 3513 2228 3513 1497 
Q 3513 744 3044 326 
Q 2575 -91 1722 -91 
Q 1428 -91 1123 -41 
Q 819 9 494 109 
L 494 744 
Q 775 591 1075 516 
Q 1375 441 1709 441 
Q 2250 441 2565 725 
Q 2881 1009 2881 1497 
Q 2881 1984 2565 2268 
Q 2250 2553 1709 2553 
Q 1456 2553 1204 2497 
Q 953 2441 691 2322 
L 691 4666 
z
" transform="scale(0.015625)"/>
     </defs>
     <use xlink:href="#DejaVuSans-74"/>
     <use xlink:href="#DejaVuSans-20" x="39.208984"/>
     <use xlink:href="#DejaVuSans-3d" x="70.996094"/>
     <use xlink:href="#DejaVuSans-20" x="154.785156"/>
     <use xlink:href="#DejaVuSans-30" x="186.572266"/>
     <use xlink:href="#DejaVuSans-2e" x="250.195312"/>
     <use xlink:href="#DejaVuSans-31" x="281.982422"/>
     <use xlink:href="#DejaVuSans-2c" x="345.605469"/>
     <use xlink:href="#DejaVuSans-20" x="377.392578"/>
     <use xlink:href="#DejaVuSans-64" x="409.179688"/>
     <use xlink:href="#DejaVuSans-65" x="472.65625"/>
     <use xlink:href="#DejaVuSans-6c" x="534.179688"/>
     <use xlink:href="#DejaVuSans-74" x="561.962891"/>
     <use xlink:href="#DejaVuSans-61" x="601.171875"/>
     <use xlink:href="#DejaVuSans-5f" x="662.451172"/>
     <use xlink:href="#DejaVuSans-74" x="712.451172"/>
     <use xlink:href="#DejaVuSans-3d" x="751.660156"/>
     <use xlink:href="#DejaVuSans-30" x="835.449219"/>
     <use xlink:href="#DejaVuSans-2e" x="899.072266"/>
     <use xlink:href="#DejaVuSans-30" x="930.859375"/>
     <use xlink:href="#DejaVuSans-30" x="994.482422"/>
     <use xlink:href="#DejaVuSans-30" x="1058.105469"/>
     <use xlink:href="#DejaVuSans-35" x="1121.728516"/>
    </g>
   </g>
   <g id="legend_1">
    <g id="patch_7">
     <path d="M 312.802813 108.1845 
L 407.72 108.1845 
Q 409.72 108.1845 409.72 106.1845 
L 409.72 48.472 
Q 409.72 46.472 407.72 46.472 
L 312.802813 46.472 
Q 310.802813 46.472 310.802813 48.472 
L 310.802813 106.1845 
Q 310.802813 108.1845 312.802813 108.1845 
z
" style="fill: #ffffff; opacity: 0.8; stroke: #cccccc; stroke-linejoin: miter"/>
    </g>
    <g id="line2d_16">
     <path d="M 314.802813 54.570438 
L 324.802813 54.570438 
L 334.802813 54.570438 
" style="fill: none; stroke: #1f77b4; stroke-width: 1.5; stroke-linecap: square"/>
    </g>
    <g id="text_15">
     <!-- P at 2 qubits -->
     <g transform="translate(342.802813 58.070438) scale(0.1 -0.1)">
      <defs>
       <path id="DejaVuSans-71" d="M 947 1747 
Q 947 1113 1208 752 
Q 1469 391 1925 391 
Q 2381 391 2643 752 
Q 2906 1113 2906 1747 
Q 2906 2381 2643 2742 
Q 2381 3103 1925 3103 
Q 1469 3103 1208 2742 
Q 947 2381 947 1747 
z
M 2906 525 
Q 2725 213 2448 61 
Q 2172 -91 1784 -91 
Q 1150 -91 751 415 
Q 353 922 353 1747 
Q 353 2572 751 3078 
Q 1150 3584 1784 3584 
Q 2172 3584 2448 3432 
Q 2725 3281 2906 2969 
L 2906 3500 
L 3481 3500 
L 3481 -1331 
L 2906 -1331 
L 2906 525 
z
" transform="scale(0.015625)"/>
       <path id="DejaVuSans-75" d="M 544 1381 
L 544 3500 
L 1119 3500 
L 1119 1403 
Q 1119 906 1312 657 
Q 1506 409 1894 409 
Q 2359 409 2629 706 
Q 2900 1003 2900 1516 
L 2900 3500 
L 3475 3500 
L 3475 0 
L 2900 0 
L 2900 538 
Q 2691 219 2414 64 
Q 2138 -91 1772 -91 
Q 1169 -91 856 284 
Q 544 659 544 1381 
z
M 1991 3584 
L 1991 3584 
z
" transform="scale(0.015625)"/>
       <path id="DejaVuSans-62" d="M 3116 1747 
Q 3116 2381 2855 2742 
Q 2594 3103 2138 3103 
Q 1681 3103 1420 2742 
Q 1159 2381 1159 1747 
Q 1159 1113 1420 752 
Q 1681 391 2138 391 
Q 2594 391 2855 752 
Q 3116 1113 3116 1747 
z
M 1159 2969 
Q 1341 3281 1617 3432 
Q 1894 3584 2278 3584 
Q 2916 3584 3314 3078 
Q 3713 2572 3713 1747 
Q 3713 922 3314 415 
Q 2916 -91 2278 -91 
Q 1894 -91 1617 61 
Q 1341 213 1159 525 
L 1159 0 
L 581 0 
L 581 4863 
L 1159 4863 
L 1159 2969 
z
" transform="scale(0.015625)"/>
       <path id="DejaVuSans-69" d="M 603 3500 
L 1178 3500 
L 1178 0 
L 603 0 
L 603 3500 
z
M 603 4863 
L 1178 4863 
L 1178 4134 
L 603 4134 
L 603 4863 
z
" transform="scale(0.015625)"/>
       <path id="DejaVuSans-73" d="M 2834 3397 
L 2834 2853 
Q 2591 2978 2328 3040 
Q 2066 3103 1784 3103 
Q 1356 3103 1142 2972 
Q 928 2841 928 2578 
Q 928 2378 1081 2264 
Q 1234 2150 1697 2047 
L 1894 2003 
Q 2506 1872 2764 1633 
Q 3022 1394 3022 966 
Q 3022 478 2636 193 
Q 2250 -91 1575 -91 
Q 1294 -91 989 -36 
Q 684 19 347 128 
L 347 722 
Q 666 556 975 473 
Q 1284 391 1588 391 
Q 1994 391 2212 530 
Q 2431 669 2431 922 
Q 2431 1156 2273 1281 
Q 2116 1406 1581 1522 
L 1381 1569 
Q 847 1681 609 1914 
Q 372 2147 372 2553 
Q 372 3047 722 3315 
Q 1072 3584 1716 3584 
Q 2034 3584 2315 3537 
Q 2597 3491 2834 3397 
z
" transform="scale(0.015625)"/>
      </defs>
      <use xlink:href="#DejaVuSans-50"/>
      <use xlink:href="#DejaVuSans-20" x="60.302734"/>
      <use xlink:href="#DejaVuSans-61" x="92.089844"/>
      <use xlink:href="#DejaVuSans-74" x="153.369141"/>
      <use xlink:href="#DejaVuSans-20" x="192.578125"/>
      <use xlink:href="#DejaVuSans-32" x="224.365234"/>
      <use xlink:href="#DejaVuSans-20" x="287.988281"/>
      <use xlink:href="#DejaVuSans-71" x="319.775391"/>
      <use xlink:href="#DejaVuSans-75" x="383.251953"/>
      <use xlink:href="#DejaVuSans-62" x="446.630859"/>
      <use xlink:href="#DejaVuSans-69" x="510.107422"/>
      <use xlink:href="#DejaVuSans-74" x="537.890625"/>
      <use xlink:href="#DejaVuSans-73" x="577.099609"/>
     </g>
    </g>
    <g id="line2d_17">
     <path d="M 314.802813 69.248563 
L 324.802813 69.248563 
L 334.802813 69.248563 
" style="fill: none; stroke: #ff7f0e; stroke-width: 1.5; stroke-linecap: square"/>
    </g>
    <g id="text_16">
     <!-- P at 3 qubits -->
     <g transform="translate(342.802813 72.748563) scale(0.1 -0.1)">
      <defs>
       <path id="DejaVuSans-33" d="M 2597 2516 
Q 3050 2419 3304 2112 
Q 3559 1806 3559 1356 
Q 3559 666 3084 287 
Q 2609 -91 1734 -91 
Q 1441 -91 1130 -33 
Q 819 25 488 141 
L 488 750 
Q 750 597 1062 519 
Q 1375 441 1716 441 
Q 2309 441 2620 675 
Q 2931 909 2931 1356 
Q 2931 1769 2642 2001 
Q 2353 2234 1838 2234 
L 1294 2234 
L 1294 2753 
L 1863 2753 
Q 2328 2753 2575 2939 
Q 2822 3125 2822 3475 
Q 2822 3834 2567 4026 
Q 2313 4219 1838 4219 
Q 1578 4219 1281 4162 
Q 984 4106 628 3988 
L 628 4550 
Q 988 4650 1302 4700 
Q 1616 4750 1894 4750 
Q 2613 4750 3031 4423 
Q 3450 4097 3450 3541 
Q 3450 3153 3228 2886 
Q 3006 2619 2597 2516 
z
" transform="scale(0.015625)"/>
      </defs>
      <use xlink:href="#DejaVuSans-50"/>
      <use xlink:href="#DejaVuSans-20" x="60.302734"/>
      <use xlink:href="#DejaVuSans-61" x="92.089844"/>
      <use xlink:href="#DejaVuSans-74" x="153.369141"/>
      <use xlink:href="#DejaVuSans-20" x="192.578125"/>
      <use xlink:href="#DejaVuSans-33" x="224.365234"/>
      <use xlink:href="#DejaVuSans-20" x="287.988281"/>
      <use xlink:href="#DejaVuSans-71" x="319.775391"/>
      <use xlink:href="#DejaVuSans-75" x="383.251953"/>
      <use xlink:href="#DejaVuSans-62" x="446.630859"/>
      <use xlink:href="#DejaVuSans-69" x="510.107422"/>
      <use xlink:href="#DejaVuSans-74" x="537.890625"/>
      <use xlink:href="#DejaVuSans-73" x="577.099609"/>
     </g>
    </g>
    <g id="line2d_18">
     <path d="M 314.802813 83.926688 
L 324.802813 83.926688 
L 334.802813 83.926688 
" style="fill: none; stroke: #2ca02c; stroke-width: 1.5; stroke-linecap: square"/>
    </g>
    <g id="text_17">
     <!-- P at 4 qubits -->
     <g transform="translate(342.802813 87.426688) scale(0.1 -0.1)">
      <use xlink:href="#DejaVuSans-50"/>
      <use xlink:href="#DejaVuSans-20" x="60.302734"/>
      <use xlink:href="#DejaVuSans-61" x="92.089844"/>
      <use xlink:href="#DejaVuSans-74" x="153.369141"/>
      <use xlink:href="#DejaVuSans-20" x="192.578125"/>
      <use xlink:href="#DejaVuSans-34" x="224.365234"/>
      <use xlink:href="#DejaVuSans-20" x="287.988281"/>
      <use xlink:href="#DejaVuSans-71" x="319.775391"/>
      <use xlink:href="#DejaVuSans-75" x="383.251953"/>
      <use xlink:href="#DejaVuSans-62" x="446.630859"/>
      <use xlink:href="#DejaVuSans-69" x="510.107422"/>
      <use xlink:href="#DejaVuSans-74" x="537.890625"/>
      <use xlink:href="#DejaVuSans-73" x="577.099609"/>
     </g>
    </g>
    <g id="line2d_19">
     <path d="M 314.802813 98.604813 
L 324.802813 98.604813 
L 334.802813 98.604813 
" style="fill: none; stroke: #d62728; stroke-width: 1.5; stroke-linecap: square"/>
    </g>
    <g id="text_18">
     <!-- P at 5 qubits -->
     <g transform="translate(342.802813 102.104813) scale(0.1 -0.1)">
      <use xlink:href="#DejaVuSans-50"/>
      <use xlink:href="#DejaVuSans-20" x="60.302734"/>
      <use xlink:href="#DejaVuSans-61" x="92.089844"/>
      <use xlink:href="#DejaVuSans-74" x="153.369141"/>
      <use xlink:href="#DejaVuSans-20" x="192.578125"/>
      <use xlink:href="#DejaVuSans-35" x="224.365234"/>
      <use xlink:href="#DejaVuSans-20" x="287.988281"/>
      <use xlink:href="#DejaVuSans-71" x="319.775391"/>
      <use xlink:href="#DejaVuSans-75" x="383.251953"/>
      <use xlink:href="#DejaVuSans-62" x="446.630859"/>
      <use xlink:href="#DejaVuSans-69" x="510.107422"/>
      <use xlink:href="#DejaVuSans-74" x="537.890625"/>
      <use xlink:href="#DejaVuSans-73" x="577.099609"/>
     </g>
    </g>
   </g>
  </g>
 </g>
 <defs>
  <clipPath id="pa976367f61">
   <rect x="57.6" y="41.472" width="357.12" height="266.112"/>
  </clipPath>
 </defs>
</svg>
