<?xml version="1.0" encoding="utf-8" standalone="no"?>
<!DOCTYPE svg PUBLIC "-//W3C//DTD SVG 1.1//EN"
  "http://www.w3.org/Graphics/SVG/1.1/DTD/svg11.dtd">
<svg xmlns:xlink="http://www.w3.org/1999/xlink" width="460.8pt" height="345.6pt" viewBox="0 0 460.8 345.6" xmlns="http://www.w3.org/2000/svg" version="1.1">
 <metadata>
  <rdf:RDF xmlns:dc="http://purl.org/dc/elements/1.1/" xmlns:cc="http://creativecommons.org/ns#" xmlns:rdf="http://www.w3.org/1999/02/22-rdf-syntax-ns#">
   <cc:Work>
    <dc:type rdf:resource="http://purl.org/dc/dcmitype/StillImage"/>
    <dc:date>2024-04-25T23:44:11.305212</dc:date>
    <dc:format>image/svg+xml</dc:format>
    <dc:creator>
     <cc:Agent>
      <dc:title>Matplotlib v3.8.2, https://matplotlib.org/</dc:title>
     </cc:Agent>
    </dc:creator>
   </cc:Work>
  </rdf:RDF>
 </metadata>
 <defs>
  <style type="text/css">*{stroke-linejoin: round; stroke-linecap: butt}</style>
 </defs>
 <g id="figure_1">
  <g id="patch_1">
   <path d="M 0 345.6 
L 460.8 345.6 
L 460.8 0 
L 0 0 
z
" style="fill: #ffffff"/>
  </g>
  <g id="axes_1">
   <g id="patch_2">
    <path d="M 57.6 307.584 
L 414.72 307.584 
L 414.72 41.472 
L 57.6 41.472 
z
" style="fill: #ffffff"/>
   </g>
   <g id="matplotlib.axis_1">
    <g id="xtick_1">
     <g id="line2d_1">
      <defs>
       <path id="mad53e30f9c" d="M 0 0 
L 0 3.5 
" style="stroke: #000000; stroke-width: 0.8"/>
      </defs>
      <g>
       <use xlink:href="#mad53e30f9c" x="73.832727" y="307.584" style="stroke: #000000; stroke-width: 0.8"/>
      </g>
     </g>
     <g id="text_1">
      <!-- 0 -->
      <g transform="translate(67.470227 329.780875) scale(0.2 -0.2)">
       <defs>
        <path id="DejaVuSans-30" d="M 2034 4250 
Q 1547 4250 1301 3770 
Q 1056 3291 1056 2328 
Q 1056 1369 1301 889 
Q 1547 409 2034 409 
Q 2525 409 2770 889 
Q 3016 1369 3016 2328 
Q 3016 3291 2770 3770 
Q 2525 4250 2034 4250 
z
M 2034 4750 
Q 2819 4750 3233 4129 
Q 3647 3509 3647 2328 
Q 3647 1150 3233 529 
Q 2819 -91 2034 -91 
Q 1250 -91 836 529 
Q 422 1150 422 2328 
Q 422 3509 836 4129 
Q 1250 4750 2034 4750 
z
" transform="scale(0.015625)"/>
       </defs>
       <use xlink:href="#DejaVuSans-30"/>
      </g>
     </g>
    </g>
    <g id="xtick_2">
     <g id="line2d_2">
      <g>
       <use xlink:href="#mad53e30f9c" x="139.419504" y="307.584" style="stroke: #000000; stroke-width: 0.8"/>
      </g>
     </g>
     <g id="text_2">
      <!-- 20 -->
      <g transform="translate(126.694504 329.780875) scale(0.2 -0.2)">
       <defs>
        <path id="DejaVuSans-32" d="M 1228 531 
L 3431 531 
L 3431 0 
L 469 0 
L 469 531 
Q 828 903 1448 1529 
Q 2069 2156 2228 2338 
Q 2531 2678 2651 2914 
Q 2772 3150 2772 3378 
Q 2772 3750 2511 3984 
Q 2250 4219 1831 4219 
Q 1534 4219 1204 4116 
Q 875 4013 500 3803 
L 500 4441 
Q 881 4594 1212 4672 
Q 1544 4750 1819 4750 
Q 2544 4750 2975 4387 
Q 3406 4025 3406 3419 
Q 3406 3131 3298 2873 
Q 3191 2616 2906 2266 
Q 2828 2175 2409 1742 
Q 1991 1309 1228 531 
z
" transform="scale(0.015625)"/>
       </defs>
       <use xlink:href="#DejaVuSans-32"/>
       <use xlink:href="#DejaVuSans-30" x="63.623047"/>
      </g>
     </g>
    </g>
    <g id="xtick_3">
     <g id="line2d_3">
      <g>
       <use xlink:href="#mad53e30f9c" x="205.006281" y="307.584" style="stroke: #000000; stroke-width: 0.8"/>
      </g>
     </g>
     <g id="text_3">
      <!-- 40 -->
      <g transform="translate(192.281281 329.780875) scale(0.2 -0.2)">
       <defs>
        <path id="DejaVuSans-34" d="M 2419 4116 
L 825 1625 
L 2419 1625 
L 2419 4116 
z
M 2253 4666 
L 3047 4666 
L 3047 1625 
L 3713 1625 
L 3713 1100 
L 3047 1100 
L 3047 0 
L 2419 0 
L 2419 1100 
L 313 1100 
L 313 1709 
L 2253 4666 
z
" transform="scale(0.015625)"/>
       </defs>
       <use xlink:href="#DejaVuSans-34"/>
       <use xlink:href="#DejaVuSans-30" x="63.623047"/>
      </g>
     </g>
    </g>
    <g id="xtick_4">
     <g id="line2d_4">
      <g>
       <use xlink:href="#mad53e30f9c" x="270.593058" y="307.584" style="stroke: #000000; stroke-width: 0.8"/>
      </g>
     </g>
     <g id="text_4">
      <!-- 60 -->
      <g transform="translate(257.868058 329.780875) scale(0.2 -0.2)">
       <defs>
        <path id="DejaVuSans-36" d="M 2113 2584 
Q 1688 2584 1439 2293 
Q 1191 2003 1191 1497 
Q 1191 994 1439 701 
Q 1688 409 2113 409 
Q 2538 409 2786 701 
Q 3034 994 3034 1497 
Q 3034 2003 2786 2293 
Q 2538 2584 2113 2584 
z
M 3366 4563 
L 3366 3988 
Q 3128 4100 2886 4159 
Q 2644 4219 2406 4219 
Q 1781 4219 1451 3797 
Q 1122 3375 1075 2522 
Q 1259 2794 1537 2939 
Q 1816 3084 2150 3084 
Q 2853 3084 3261 2657 
Q 3669 2231 3669 1497 
Q 3669 778 3244 343 
Q 2819 -91 2113 -91 
Q 1303 -91 875 529 
Q 447 1150 447 2328 
Q 447 3434 972 4092 
Q 1497 4750 2381 4750 
Q 2619 4750 2861 4703 
Q 3103 4656 3366 4563 
z
" transform="scale(0.015625)"/>
       </defs>
       <use xlink:href="#DejaVuSans-36"/>
       <use xlink:href="#DejaVuSans-30" x="63.623047"/>
      </g>
     </g>
    </g>
    <g id="xtick_5">
     <g id="line2d_5">
      <g>
       <use xlink:href="#mad53e30f9c" x="336.179835" y="307.584" style="stroke: #000000; stroke-width: 0.8"/>
      </g>
     </g>
     <g id="text_5">
      <!-- 80 -->
      <g transform="translate(323.454835 329.780875) scale(0.2 -0.2)">
       <defs>
        <path id="DejaVuSans-38" d="M 2034 2216 
Q 1584 2216 1326 1975 
Q 1069 1734 1069 1313 
Q 1069 891 1326 650 
Q 1584 409 2034 409 
Q 2484 409 2743 651 
Q 3003 894 3003 1313 
Q 3003 1734 2745 1975 
Q 2488 2216 2034 2216 
z
M 1403 2484 
Q 997 2584 770 2862 
Q 544 3141 544 3541 
Q 544 4100 942 4425 
Q 1341 4750 2034 4750 
Q 2731 4750 3128 4425 
Q 3525 4100 3525 3541 
Q 3525 3141 3298 2862 
Q 3072 2584 2669 2484 
Q 3125 2378 3379 2068 
Q 3634 1759 3634 1313 
Q 3634 634 3220 271 
Q 2806 -91 2034 -91 
Q 1263 -91 848 271 
Q 434 634 434 1313 
Q 434 1759 690 2068 
Q 947 2378 1403 2484 
z
M 1172 3481 
Q 1172 3119 1398 2916 
Q 1625 2713 2034 2713 
Q 2441 2713 2670 2916 
Q 2900 3119 2900 3481 
Q 2900 3844 2670 4047 
Q 2441 4250 2034 4250 
Q 1625 4250 1398 4047 
Q 1172 3844 1172 3481 
z
" transform="scale(0.015625)"/>
       </defs>
       <use xlink:href="#DejaVuSans-38"/>
       <use xlink:href="#DejaVuSans-30" x="63.623047"/>
      </g>
     </g>
    </g>
    <g id="xtick_6">
     <g id="line2d_6">
      <g>
       <use xlink:href="#mad53e30f9c" x="401.766612" y="307.584" style="stroke: #000000; stroke-width: 0.8"/>
      </g>
     </g>
     <g id="text_6">
      <!-- 100 -->
      <g transform="translate(382.679112 329.780875) scale(0.2 -0.2)">
       <defs>
        <path id="DejaVuSans-31" d="M 794 531 
L 1825 531 
L 1825 4091 
L 703 3866 
L 703 4441 
L 1819 4666 
L 2450 4666 
L 2450 531 
L 3481 531 
L 3481 0 
L 794 0 
L 794 531 
z
" transform="scale(0.015625)"/>
       </defs>
       <use xlink:href="#DejaVuSans-31"/>
       <use xlink:href="#DejaVuSans-30" x="63.623047"/>
       <use xlink:href="#DejaVuSans-30" x="127.246094"/>
      </g>
     </g>
    </g>
    <g id="text_7">
     <!-- # iteration -->
     <g transform="translate(182.356875 353.137125) scale(0.2 -0.2)">
      <defs>
       <path id="DejaVuSans-23" d="M 3272 2816 
L 2363 2816 
L 2100 1772 
L 3016 1772 
L 3272 2816 
z
M 2803 4594 
L 2478 3297 
L 3391 3297 
L 3719 4594 
L 4219 4594 
L 3897 3297 
L 4872 3297 
L 4872 2816 
L 3775 2816 
L 3519 1772 
L 4513 1772 
L 4513 1294 
L 3397 1294 
L 3072 0 
L 2572 0 
L 2894 1294 
L 1978 1294 
L 1656 0 
L 1153 0 
L 1478 1294 
L 494 1294 
L 494 1772 
L 1594 1772 
L 1856 2816 
L 850 2816 
L 850 3297 
L 1978 3297 
L 2297 4594 
L 2803 4594 
z
" transform="scale(0.015625)"/>
       <path id="DejaVuSans-20" transform="scale(0.015625)"/>
       <path id="DejaVuSans-69" d="M 603 3500 
L 1178 3500 
L 1178 0 
L 603 0 
L 603 3500 
z
M 603 4863 
L 1178 4863 
L 1178 4134 
L 603 4134 
L 603 4863 
z
" transform="scale(0.015625)"/>
       <path id="DejaVuSans-74" d="M 1172 4494 
L 1172 3500 
L 2356 3500 
L 2356 3053 
L 1172 3053 
L 1172 1153 
Q 1172 725 1289 603 
Q 1406 481 1766 481 
L 2356 481 
L 2356 0 
L 1766 0 
Q 1100 0 847 248 
Q 594 497 594 1153 
L 594 3053 
L 172 3053 
L 172 3500 
L 594 3500 
L 594 4494 
L 1172 4494 
z
" transform="scale(0.015625)"/>
       <path id="DejaVuSans-65" d="M 3597 1894 
L 3597 1613 
L 953 1613 
Q 991 1019 1311 708 
Q 1631 397 2203 397 
Q 2534 397 2845 478 
Q 3156 559 3463 722 
L 3463 178 
Q 3153 47 2828 -22 
Q 2503 -91 2169 -91 
Q 1331 -91 842 396 
Q 353 884 353 1716 
Q 353 2575 817 3079 
Q 1281 3584 2069 3584 
Q 2775 3584 3186 3129 
Q 3597 2675 3597 1894 
z
M 3022 2063 
Q 3016 2534 2758 2815 
Q 2500 3097 2075 3097 
Q 1594 3097 1305 2825 
Q 1016 2553 972 2059 
L 3022 2063 
z
" transform="scale(0.015625)"/>
       <path id="DejaVuSans-72" d="M 2631 2963 
Q 2534 3019 2420 3045 
Q 2306 3072 2169 3072 
Q 1681 3072 1420 2755 
Q 1159 2438 1159 1844 
L 1159 0 
L 581 0 
L 581 3500 
L 1159 3500 
L 1159 2956 
Q 1341 3275 1631 3429 
Q 1922 3584 2338 3584 
Q 2397 3584 2469 3576 
Q 2541 3569 2628 3553 
L 2631 2963 
z
" transform="scale(0.015625)"/>
       <path id="DejaVuSans-61" d="M 2194 1759 
Q 1497 1759 1228 1600 
Q 959 1441 959 1056 
Q 959 750 1161 570 
Q 1363 391 1709 391 
Q 2188 391 2477 730 
Q 2766 1069 2766 1631 
L 2766 1759 
L 2194 1759 
z
M 3341 1997 
L 3341 0 
L 2766 0 
L 2766 531 
Q 2569 213 2275 61 
Q 1981 -91 1556 -91 
Q 1019 -91 701 211 
Q 384 513 384 1019 
Q 384 1609 779 1909 
Q 1175 2209 1959 2209 
L 2766 2209 
L 2766 2266 
Q 2766 2663 2505 2880 
Q 2244 3097 1772 3097 
Q 1472 3097 1187 3025 
Q 903 2953 641 2809 
L 641 3341 
Q 956 3463 1253 3523 
Q 1550 3584 1831 3584 
Q 2591 3584 2966 3190 
Q 3341 2797 3341 1997 
z
" transform="scale(0.015625)"/>
       <path id="DejaVuSans-6f" d="M 1959 3097 
Q 1497 3097 1228 2736 
Q 959 2375 959 1747 
Q 959 1119 1226 758 
Q 1494 397 1959 397 
Q 2419 397 2687 759 
Q 2956 1122 2956 1747 
Q 2956 2369 2687 2733 
Q 2419 3097 1959 3097 
z
M 1959 3584 
Q 2709 3584 3137 3096 
Q 3566 2609 3566 1747 
Q 3566 888 3137 398 
Q 2709 -91 1959 -91 
Q 1206 -91 779 398 
Q 353 888 353 1747 
Q 353 2609 779 3096 
Q 1206 3584 1959 3584 
z
" transform="scale(0.015625)"/>
       <path id="DejaVuSans-6e" d="M 3513 2113 
L 3513 0 
L 2938 0 
L 2938 2094 
Q 2938 2591 2744 2837 
Q 2550 3084 2163 3084 
Q 1697 3084 1428 2787 
Q 1159 2491 1159 1978 
L 1159 0 
L 581 0 
L 581 3500 
L 1159 3500 
L 1159 2956 
Q 1366 3272 1645 3428 
Q 1925 3584 2291 3584 
Q 2894 3584 3203 3211 
Q 3513 2838 3513 2113 
z
" transform="scale(0.015625)"/>
      </defs>
      <use xlink:href="#DejaVuSans-23"/>
      <use xlink:href="#DejaVuSans-20" x="83.789062"/>
      <use xlink:href="#DejaVuSans-69" x="115.576172"/>
      <use xlink:href="#DejaVuSans-74" x="143.359375"/>
      <use xlink:href="#DejaVuSans-65" x="182.568359"/>
      <use xlink:href="#DejaVuSans-72" x="244.091797"/>
      <use xlink:href="#DejaVuSans-61" x="285.205078"/>
      <use xlink:href="#DejaVuSans-74" x="346.484375"/>
      <use xlink:href="#DejaVuSans-69" x="385.693359"/>
      <use xlink:href="#DejaVuSans-6f" x="413.476562"/>
      <use xlink:href="#DejaVuSans-6e" x="474.658203"/>
     </g>
    </g>
   </g>
   <g id="matplotlib.axis_2">
    <g id="ytick_1">
     <g id="line2d_7">
      <defs>
       <path id="ma984c3addb" d="M 0 0 
L -3.5 0 
" style="stroke: #000000; stroke-width: 0.8"/>
      </defs>
      <g>
       <use xlink:href="#ma984c3addb" x="57.6" y="307.584" style="stroke: #000000; stroke-width: 0.8"/>
      </g>
     </g>
     <g id="text_8">
      <!-- 0 -->
      <g transform="translate(37.875 315.182437) scale(0.2 -0.2)">
       <use xlink:href="#DejaVuSans-30"/>
      </g>
     </g>
    </g>
    <g id="ytick_2">
     <g id="line2d_8">
      <g>
       <use xlink:href="#ma984c3addb" x="57.6" y="241.056" style="stroke: #000000; stroke-width: 0.8"/>
      </g>
     </g>
     <g id="text_9">
      <!-- 2 -->
      <g transform="translate(37.875 248.654437) scale(0.2 -0.2)">
       <use xlink:href="#DejaVuSans-32"/>
      </g>
     </g>
    </g>
    <g id="ytick_3">
     <g id="line2d_9">
      <g>
       <use xlink:href="#ma984c3addb" x="57.6" y="174.528" style="stroke: #000000; stroke-width: 0.8"/>
      </g>
     </g>
     <g id="text_10">
      <!-- 4 -->
      <g transform="translate(37.875 182.126437) scale(0.2 -0.2)">
       <use xlink:href="#DejaVuSans-34"/>
      </g>
     </g>
    </g>
    <g id="ytick_4">
     <g id="line2d_10">
      <g>
       <use xlink:href="#ma984c3addb" x="57.6" y="108" style="stroke: #000000; stroke-width: 0.8"/>
      </g>
     </g>
     <g id="text_11">
      <!-- 6 -->
      <g transform="translate(37.875 115.598437) scale(0.2 -0.2)">
       <use xlink:href="#DejaVuSans-36"/>
      </g>
     </g>
    </g>
    <g id="ytick_5">
     <g id="line2d_11">
      <g>
       <use xlink:href="#ma984c3addb" x="57.6" y="41.472" style="stroke: #000000; stroke-width: 0.8"/>
      </g>
     </g>
     <g id="text_12">
      <!-- 8 -->
      <g transform="translate(37.875 49.070438) scale(0.2 -0.2)">
       <use xlink:href="#DejaVuSans-38"/>
      </g>
     </g>
    </g>
    <g id="text_13">
     <!-- Cost -->
     <g transform="translate(29.715625 196.75925) rotate(-90) scale(0.2 -0.2)">
      <defs>
       <path id="DejaVuSans-43" d="M 4122 4306 
L 4122 3641 
Q 3803 3938 3442 4084 
Q 3081 4231 2675 4231 
Q 1875 4231 1450 3742 
Q 1025 3253 1025 2328 
Q 1025 1406 1450 917 
Q 1875 428 2675 428 
Q 3081 428 3442 575 
Q 3803 722 4122 1019 
L 4122 359 
Q 3791 134 3420 21 
Q 3050 -91 2638 -91 
Q 1578 -91 968 557 
Q 359 1206 359 2328 
Q 359 3453 968 4101 
Q 1578 4750 2638 4750 
Q 3056 4750 3426 4639 
Q 3797 4528 4122 4306 
z
" transform="scale(0.015625)"/>
       <path id="DejaVuSans-73" d="M 2834 3397 
L 2834 2853 
Q 2591 2978 2328 3040 
Q 2066 3103 1784 3103 
Q 1356 3103 1142 2972 
Q 928 2841 928 2578 
Q 928 2378 1081 2264 
Q 1234 2150 1697 2047 
L 1894 2003 
Q 2506 1872 2764 1633 
Q 3022 1394 3022 966 
Q 3022 478 2636 193 
Q 2250 -91 1575 -91 
Q 1294 -91 989 -36 
Q 684 19 347 128 
L 347 722 
Q 666 556 975 473 
Q 1284 391 1588 391 
Q 1994 391 2212 530 
Q 2431 669 2431 922 
Q 2431 1156 2273 1281 
Q 2116 1406 1581 1522 
L 1381 1569 
Q 847 1681 609 1914 
Q 372 2147 372 2553 
Q 372 3047 722 3315 
Q 1072 3584 1716 3584 
Q 2034 3584 2315 3537 
Q 2597 3491 2834 3397 
z
" transform="scale(0.015625)"/>
      </defs>
      <use xlink:href="#DejaVuSans-43"/>
      <use xlink:href="#DejaVuSans-6f" x="69.824219"/>
      <use xlink:href="#DejaVuSans-73" x="131.005859"/>
      <use xlink:href="#DejaVuSans-74" x="183.105469"/>
     </g>
    </g>
   </g>
   <g id="line2d_12">
    <path d="M 73.832727 304.733102 
L 77.112066 303.618516 
L 80.391405 302.81707 
L 83.670744 302.173394 
L 86.950083 301.601504 
L 90.229421 301.085547 
L 93.50876 300.59148 
L 96.788099 300.140213 
L 100.067438 299.718221 
L 103.346777 299.315841 
L 106.626116 298.943794 
L 109.905455 298.595037 
L 113.184793 298.217527 
L 116.464132 297.896157 
L 119.743471 297.579456 
L 123.02281 297.255459 
L 126.302149 296.97351 
L 129.581488 296.68632 
L 132.860826 296.379025 
L 136.140165 296.103892 
L 139.419504 295.859325 
L 142.698843 295.602939 
L 145.978182 295.314596 
L 149.257521 295.050023 
L 152.53686 294.80846 
L 155.816198 294.588907 
L 159.095537 294.384218 
L 162.374876 294.10956 
L 165.654215 293.85184 
L 168.933554 293.610818 
L 172.212893 293.386116 
L 175.492231 293.17724 
L 178.77157 292.983602 
L 182.050909 292.804545 
L 185.330248 292.629151 
L 188.609587 292.381996 
L 191.888926 292.146196 
L 195.168264 291.921683 
L 198.447603 291.708327 
L 201.726942 291.505945 
L 205.006281 291.314305 
L 208.28562 291.133136 
L 211.564959 290.962133 
L 214.844298 290.800964 
L 218.123636 290.649274 
L 221.402975 290.506692 
L 224.682314 290.361685 
L 227.961653 290.141877 
L 231.240992 289.929202 
L 234.520331 289.723662 
L 237.799669 289.525234 
L 241.079008 289.333876 
L 244.358347 289.149524 
L 247.637686 288.972096 
L 250.917025 288.801495 
L 254.196364 288.637607 
L 257.475702 288.480306 
L 260.755041 288.329456 
L 264.03438 288.184907 
L 267.313719 288.046505 
L 270.593058 287.914087 
L 273.872397 287.787483 
L 277.151736 287.666521 
L 280.431074 287.551025 
L 283.710413 287.440816 
L 286.989752 287.335715 
L 290.269091 287.189075 
L 293.54843 286.999532 
L 296.827769 286.814087 
L 300.107107 286.632755 
L 303.386446 286.455542 
L 306.665785 286.282448 
L 309.945124 286.113468 
L 313.224463 285.948588 
L 316.503802 285.787791 
L 319.78314 285.631053 
L 323.062479 285.478345 
L 326.341818 285.329632 
L 329.621157 285.184877 
L 332.900496 285.044036 
L 336.179835 284.907063 
L 339.459174 284.773907 
L 342.738512 284.644516 
L 346.017851 284.518832 
L 349.29719 284.396797 
L 352.576529 284.27835 
L 355.855868 284.163425 
L 359.135207 284.051959 
L 362.414545 283.943885 
L 365.693884 283.839133 
L 368.973223 283.737634 
L 372.252562 283.639319 
L 375.531901 283.544115 
L 378.81124 283.451953 
L 382.090579 283.362759 
L 385.369917 283.276462 
L 388.649256 283.19299 
L 391.928595 283.112271 
L 395.207934 283.034235 
L 398.487273 282.958809 
" clip-path="url(#pb6dce0059f)" style="fill: none; stroke: #1f77b4; stroke-width: 1.5; stroke-linecap: square"/>
   </g>
   <g id="line2d_13">
    <path d="M 73.832727 303.013153 
L 77.112066 302.603496 
L 80.391405 302.219057 
L 83.670744 301.840333 
L 86.950083 301.486299 
L 90.229421 301.143148 
L 93.50876 300.814101 
L 96.788099 300.491693 
L 100.067438 300.184472 
L 103.346777 299.879793 
L 106.626116 299.579978 
L 109.905455 299.301234 
L 113.184793 298.999702 
L 116.464132 298.721591 
L 119.743471 298.466699 
L 123.02281 298.201836 
L 126.302149 297.927553 
L 129.581488 297.671892 
L 132.860826 297.434698 
L 136.140165 297.203835 
L 139.419504 296.938177 
L 142.698843 296.686929 
L 145.978182 296.450129 
L 149.257521 296.227686 
L 152.53686 296.019391 
L 155.816198 295.818076 
L 159.095537 295.570246 
L 162.374876 295.333185 
L 165.654215 295.106968 
L 168.933554 294.891596 
L 172.212893 294.687004 
L 175.492231 294.493069 
L 178.77157 294.309609 
L 182.050909 294.136398 
L 185.330248 293.951801 
L 188.609587 293.72699 
L 191.888926 293.509901 
L 195.168264 293.300591 
L 198.447603 293.09908 
L 201.726942 292.905357 
L 205.006281 292.719381 
L 208.28562 292.541083 
L 211.564959 292.370369 
L 214.844298 292.207119 
L 218.123636 292.051196 
L 221.402975 291.902443 
L 224.682314 291.760687 
L 227.961653 291.601184 
L 231.240992 291.39815 
L 234.520331 291.200299 
L 237.799669 291.007674 
L 241.079008 290.820304 
L 244.358347 290.638204 
L 247.637686 290.461377 
L 250.917025 290.28981 
L 254.196364 290.123482 
L 257.475702 289.962359 
L 260.755041 289.806396 
L 264.03438 289.655541 
L 267.313719 289.50973 
L 270.593058 289.368893 
L 273.872397 289.232952 
L 277.151736 289.101823 
L 280.431074 288.975414 
L 283.710413 288.85363 
L 286.989752 288.736372 
L 290.269091 288.623533 
L 293.54843 288.514444 
L 296.827769 288.333204 
L 300.107107 288.15512 
L 303.386446 287.980222 
L 306.665785 287.808536 
L 309.945124 287.640083 
L 313.224463 287.474877 
L 316.503802 287.312932 
L 319.78314 287.154253 
L 323.062479 286.998843 
L 326.341818 286.846701 
L 329.621157 286.69782 
L 332.900496 286.552192 
L 336.179835 286.409804 
L 339.459174 286.270638 
L 342.738512 286.134676 
L 346.017851 286.001894 
L 349.29719 285.872266 
L 352.576529 285.745763 
L 355.855868 285.622356 
L 359.135207 285.502008 
L 362.414545 285.384686 
L 365.693884 285.27035 
L 368.973223 285.158962 
L 372.252562 285.050479 
L 375.531901 284.944858 
L 378.81124 284.842054 
L 382.090579 284.742023 
L 385.369917 284.644716 
L 388.649256 284.550086 
L 391.928595 284.458084 
L 395.207934 284.36866 
L 398.487273 284.281765 
" clip-path="url(#pb6dce0059f)" style="fill: none; stroke: #ff7f0e; stroke-width: 1.5; stroke-linecap: square"/>
   </g>
   <g id="line2d_14">
    <path d="M 73.832727 300.5671 
L 77.112066 298.757862 
L 80.391405 297.325894 
L 83.670744 296.124959 
L 86.950083 295.059956 
L 90.229421 294.076151 
L 93.50876 293.183837 
L 96.788099 292.341981 
L 100.067438 291.535408 
L 103.346777 290.768081 
L 106.626116 289.998655 
L 109.905455 289.307383 
L 113.184793 288.600258 
L 116.464132 287.979665 
L 119.743471 287.286162 
L 123.02281 286.678858 
L 126.302149 286.128377 
L 129.581488 285.483256 
L 132.860826 284.903355 
L 136.140165 284.386025 
L 139.419504 283.903405 
L 142.698843 283.3071 
L 145.978182 282.758634 
L 149.257521 282.256754 
L 152.53686 281.799667 
L 155.816198 281.385166 
L 159.095537 280.932525 
L 162.374876 280.400568 
L 165.654215 279.902188 
L 168.933554 279.436771 
L 172.212893 279.003451 
L 175.492231 278.601151 
L 178.77157 278.228629 
L 182.050909 277.884522 
L 185.330248 277.49178 
L 188.609587 277.007298 
L 191.888926 276.545424 
L 195.168264 276.105973 
L 198.447603 275.688644 
L 201.726942 275.293034 
L 205.006281 274.91865 
L 208.28562 274.564924 
L 211.564959 274.231226 
L 214.844298 273.916875 
L 218.123636 273.621151 
L 221.402975 273.343306 
L 224.682314 273.015931 
L 227.961653 272.581405 
L 231.240992 272.161115 
L 234.520331 271.755051 
L 237.799669 271.363157 
L 241.079008 270.985334 
L 244.358347 270.621445 
L 247.637686 270.271316 
L 250.917025 269.934743 
L 254.196364 269.611493 
L 257.475702 269.301308 
L 260.755041 269.003906 
L 264.03438 268.71899 
L 267.313719 268.446242 
L 270.593058 268.185336 
L 273.872397 267.935931 
L 277.151736 267.697681 
L 280.431074 267.470233 
L 283.710413 267.253229 
L 286.989752 267.024989 
L 290.269091 266.641793 
L 293.54843 266.266754 
L 296.827769 265.899907 
L 300.107107 265.541276 
L 303.386446 265.190869 
L 306.665785 264.848681 
L 309.945124 264.514693 
L 313.224463 264.188878 
L 316.503802 263.871192 
L 319.78314 263.561585 
L 323.062479 263.259994 
L 326.341818 262.966347 
L 329.621157 262.680565 
L 332.900496 262.402558 
L 336.179835 262.13223 
L 339.459174 261.869479 
L 342.738512 261.614195 
L 346.017851 261.366264 
L 349.29719 261.125565 
L 352.576529 260.891974 
L 355.855868 260.665362 
L 359.135207 260.445598 
L 362.414545 260.232547 
L 365.693884 260.026072 
L 368.973223 259.826032 
L 372.252562 259.632288 
L 375.531901 259.444697 
L 378.81124 259.263116 
L 382.090579 259.087403 
L 385.369917 258.917412 
L 388.649256 258.753002 
L 391.928595 258.594029 
L 395.207934 258.44035 
L 398.487273 258.291826 
" clip-path="url(#pb6dce0059f)" style="fill: none; stroke: #2ca02c; stroke-width: 1.5; stroke-linecap: square"/>
   </g>
   <g id="line2d_15">
    <path d="M 73.832727 298.516781 
L 77.112066 297.780805 
L 80.391405 297.049475 
L 83.670744 296.348315 
L 86.950083 295.653558 
L 90.229421 295.002345 
L 93.50876 294.345728 
L 96.788099 293.739565 
L 100.067438 293.143292 
L 103.346777 292.555529 
L 106.626116 292.015781 
L 109.905455 291.463907 
L 113.184793 290.916661 
L 116.464132 290.409996 
L 119.743471 289.916643 
L 123.02281 289.384439 
L 126.302149 288.884725 
L 129.581488 288.417938 
L 132.860826 287.983885 
L 136.140165 287.525734 
L 139.419504 287.038533 
L 142.698843 286.576804 
L 145.978182 286.140657 
L 149.257521 285.7299 
L 152.53686 285.344076 
L 155.816198 284.94563 
L 159.095537 284.487934 
L 162.374876 284.049178 
L 165.654215 283.629496 
L 168.933554 283.228872 
L 172.212893 282.84715 
L 175.492231 282.484057 
L 178.77157 282.13922 
L 182.050909 281.812182 
L 185.330248 281.454749 
L 188.609587 281.036004 
L 191.888926 280.630698 
L 195.168264 280.238928 
L 198.447603 279.860724 
L 201.726942 279.496054 
L 205.006281 279.144831 
L 208.28562 278.806918 
L 211.564959 278.482135 
L 214.844298 278.170263 
L 218.123636 277.87105 
L 221.402975 277.584217 
L 224.682314 277.309459 
L 227.961653 277.016334 
L 231.240992 276.634494 
L 234.520331 276.261571 
L 237.799669 275.897647 
L 241.079008 275.542775 
L 244.358347 275.196987 
L 247.637686 274.860287 
L 250.917025 274.532661 
L 254.196364 274.214074 
L 257.475702 273.90447 
L 260.755041 273.603779 
L 264.03438 273.311912 
L 267.313719 273.028768 
L 270.593058 272.754232 
L 273.872397 272.488178 
L 277.151736 272.230469 
L 280.431074 271.980959 
L 283.710413 271.739497 
L 286.989752 271.505921 
L 290.269091 271.280067 
L 293.54843 271.061763 
L 296.827769 270.823546 
L 300.107107 270.483551 
L 303.386446 270.148992 
L 306.665785 269.819922 
L 309.945124 269.496386 
L 313.224463 269.17842 
L 316.503802 268.866051 
L 319.78314 268.559302 
L 323.062479 268.258184 
L 326.341818 267.962705 
L 329.621157 267.672863 
L 332.900496 267.388652 
L 336.179835 267.110057 
L 339.459174 266.837059 
L 342.738512 266.569634 
L 346.017851 266.307751 
L 349.29719 266.051375 
L 352.576529 265.800466 
L 355.855868 265.554979 
L 359.135207 265.314868 
L 362.414545 265.080079 
L 365.693884 264.850557 
L 368.973223 264.626243 
L 372.252562 264.407076 
L 375.531901 264.192991 
L 378.81124 263.983921 
L 382.090579 263.779798 
L 385.369917 263.58055 
L 388.649256 263.386104 
L 391.928595 263.196387 
L 395.207934 263.011322 
L 398.487273 262.830833 
" clip-path="url(#pb6dce0059f)" style="fill: none; stroke: #d62728; stroke-width: 1.5; stroke-linecap: square"/>
   </g>
   <g id="patch_3">
    <path d="M 57.6 307.584 
L 57.6 41.472 
" style="fill: none; stroke: #000000; stroke-width: 0.8; stroke-linejoin: miter; stroke-linecap: square"/>
   </g>
   <g id="patch_4">
    <path d="M 414.72 307.584 
L 414.72 41.472 
" style="fill: none; stroke: #000000; stroke-width: 0.8; stroke-linejoin: miter; stroke-linecap: square"/>
   </g>
   <g id="patch_5">
    <path d="M 57.6 307.584 
L 414.72 307.584 
" style="fill: none; stroke: #000000; stroke-width: 0.8; stroke-linejoin: miter; stroke-linecap: square"/>
   </g>
   <g id="patch_6">
    <path d="M 57.6 41.472 
L 414.72 41.472 
" style="fill: none; stroke: #000000; stroke-width: 0.8; stroke-linejoin: miter; stroke-linecap: square"/>
   </g>
   <g id="legend_1">
    <g id="patch_7">
     <path d="M 285.805938 108.1845 
L 407.72 108.1845 
Q 409.72 108.1845 409.72 106.1845 
L 409.72 48.472 
Q 409.72 46.472 407.72 46.472 
L 285.805938 46.472 
Q 283.805938 46.472 283.805938 48.472 
L 283.805938 106.1845 
Q 283.805938 108.1845 285.805938 108.1845 
z
" style="fill: #ffffff; opacity: 0.8; stroke: #cccccc; stroke-linejoin: miter"/>
    </g>
    <g id="line2d_16">
     <path d="M 287.805938 54.570438 
L 297.805938 54.570438 
L 307.805938 54.570438 
" style="fill: none; stroke: #1f77b4; stroke-width: 1.5; stroke-linecap: square"/>
    </g>
    <g id="text_14">
     <!-- Pmaxs at 2 qubits -->
     <g transform="translate(315.805938 58.070438) scale(0.1 -0.1)">
      <defs>
       <path id="DejaVuSans-50" d="M 1259 4147 
L 1259 2394 
L 2053 2394 
Q 2494 2394 2734 2622 
Q 2975 2850 2975 3272 
Q 2975 3691 2734 3919 
Q 2494 4147 2053 4147 
L 1259 4147 
z
M 628 4666 
L 2053 4666 
Q 2838 4666 3239 4311 
Q 3641 3956 3641 3272 
Q 3641 2581 3239 2228 
Q 2838 1875 2053 1875 
L 1259 1875 
L 1259 0 
L 628 0 
L 628 4666 
z
" transform="scale(0.015625)"/>
       <path id="DejaVuSans-6d" d="M 3328 2828 
Q 3544 3216 3844 3400 
Q 4144 3584 4550 3584 
Q 5097 3584 5394 3201 
Q 5691 2819 5691 2113 
L 5691 0 
L 5113 0 
L 5113 2094 
Q 5113 2597 4934 2840 
Q 4756 3084 4391 3084 
Q 3944 3084 3684 2787 
Q 3425 2491 3425 1978 
L 3425 0 
L 2847 0 
L 2847 2094 
Q 2847 2600 2669 2842 
Q 2491 3084 2119 3084 
Q 1678 3084 1418 2786 
Q 1159 2488 1159 1978 
L 1159 0 
L 581 0 
L 581 3500 
L 1159 3500 
L 1159 2956 
Q 1356 3278 1631 3431 
Q 1906 3584 2284 3584 
Q 2666 3584 2933 3390 
Q 3200 3197 3328 2828 
z
" transform="scale(0.015625)"/>
       <path id="DejaVuSans-78" d="M 3513 3500 
L 2247 1797 
L 3578 0 
L 2900 0 
L 1881 1375 
L 863 0 
L 184 0 
L 1544 1831 
L 300 3500 
L 978 3500 
L 1906 2253 
L 2834 3500 
L 3513 3500 
z
" transform="scale(0.015625)"/>
       <path id="DejaVuSans-71" d="M 947 1747 
Q 947 1113 1208 752 
Q 1469 391 1925 391 
Q 2381 391 2643 752 
Q 2906 1113 2906 1747 
Q 2906 2381 2643 2742 
Q 2381 3103 1925 3103 
Q 1469 3103 1208 2742 
Q 947 2381 947 1747 
z
M 2906 525 
Q 2725 213 2448 61 
Q 2172 -91 1784 -91 
Q 1150 -91 751 415 
Q 353 922 353 1747 
Q 353 2572 751 3078 
Q 1150 3584 1784 3584 
Q 2172 3584 2448 3432 
Q 2725 3281 2906 2969 
L 2906 3500 
L 3481 3500 
L 3481 -1331 
L 2906 -1331 
L 2906 525 
z
" transform="scale(0.015625)"/>
       <path id="DejaVuSans-75" d="M 544 1381 
L 544 3500 
L 1119 3500 
L 1119 1403 
Q 1119 906 1312 657 
Q 1506 409 1894 409 
Q 2359 409 2629 706 
Q 2900 1003 2900 1516 
L 2900 3500 
L 3475 3500 
L 3475 0 
L 2900 0 
L 2900 538 
Q 2691 219 2414 64 
Q 2138 -91 1772 -91 
Q 1169 -91 856 284 
Q 544 659 544 1381 
z
M 1991 3584 
L 1991 3584 
z
" transform="scale(0.015625)"/>
       <path id="DejaVuSans-62" d="M 3116 1747 
Q 3116 2381 2855 2742 
Q 2594 3103 2138 3103 
Q 1681 3103 1420 2742 
Q 1159 2381 1159 1747 
Q 1159 1113 1420 752 
Q 1681 391 2138 391 
Q 2594 391 2855 752 
Q 3116 1113 3116 1747 
z
M 1159 2969 
Q 1341 3281 1617 3432 
Q 1894 3584 2278 3584 
Q 2916 3584 3314 3078 
Q 3713 2572 3713 1747 
Q 3713 922 3314 415 
Q 2916 -91 2278 -91 
Q 1894 -91 1617 61 
Q 1341 213 1159 525 
L 1159 0 
L 581 0 
L 581 4863 
L 1159 4863 
L 1159 2969 
z
" transform="scale(0.015625)"/>
      </defs>
      <use xlink:href="#DejaVuSans-50"/>
      <use xlink:href="#DejaVuSans-6d" x="60.302734"/>
      <use xlink:href="#DejaVuSans-61" x="157.714844"/>
      <use xlink:href="#DejaVuSans-78" x="218.994141"/>
      <use xlink:href="#DejaVuSans-73" x="278.173828"/>
      <use xlink:href="#DejaVuSans-20" x="330.273438"/>
      <use xlink:href="#DejaVuSans-61" x="362.060547"/>
      <use xlink:href="#DejaVuSans-74" x="423.339844"/>
      <use xlink:href="#DejaVuSans-20" x="462.548828"/>
      <use xlink:href="#DejaVuSans-32" x="494.335938"/>
      <use xlink:href="#DejaVuSans-20" x="557.958984"/>
      <use xlink:href="#DejaVuSans-71" x="589.746094"/>
      <use xlink:href="#DejaVuSans-75" x="653.222656"/>
      <use xlink:href="#DejaVuSans-62" x="716.601562"/>
      <use xlink:href="#DejaVuSans-69" x="780.078125"/>
      <use xlink:href="#DejaVuSans-74" x="807.861328"/>
      <use xlink:href="#DejaVuSans-73" x="847.070312"/>
     </g>
    </g>
    <g id="line2d_17">
     <path d="M 287.805938 69.248563 
L 297.805938 69.248563 
L 307.805938 69.248563 
" style="fill: none; stroke: #ff7f0e; stroke-width: 1.5; stroke-linecap: square"/>
    </g>
    <g id="text_15">
     <!-- Pmaxs at 3 qubits -->
     <g transform="translate(315.805938 72.748563) scale(0.1 -0.1)">
      <defs>
       <path id="DejaVuSans-33" d="M 2597 2516 
Q 3050 2419 3304 2112 
Q 3559 1806 3559 1356 
Q 3559 666 3084 287 
Q 2609 -91 1734 -91 
Q 1441 -91 1130 -33 
Q 819 25 488 141 
L 488 750 
Q 750 597 1062 519 
Q 1375 441 1716 441 
Q 2309 441 2620 675 
Q 2931 909 2931 1356 
Q 2931 1769 2642 2001 
Q 2353 2234 1838 2234 
L 1294 2234 
L 1294 2753 
L 1863 2753 
Q 2328 2753 2575 2939 
Q 2822 3125 2822 3475 
Q 2822 3834 2567 4026 
Q 2313 4219 1838 4219 
Q 1578 4219 1281 4162 
Q 984 4106 628 3988 
L 628 4550 
Q 988 4650 1302 4700 
Q 1616 4750 1894 4750 
Q 2613 4750 3031 4423 
Q 3450 4097 3450 3541 
Q 3450 3153 3228 2886 
Q 3006 2619 2597 2516 
z
" transform="scale(0.015625)"/>
      </defs>
      <use xlink:href="#DejaVuSans-50"/>
      <use xlink:href="#DejaVuSans-6d" x="60.302734"/>
      <use xlink:href="#DejaVuSans-61" x="157.714844"/>
      <use xlink:href="#DejaVuSans-78" x="218.994141"/>
      <use xlink:href="#DejaVuSans-73" x="278.173828"/>
      <use xlink:href="#DejaVuSans-20" x="330.273438"/>
      <use xlink:href="#DejaVuSans-61" x="362.060547"/>
      <use xlink:href="#DejaVuSans-74" x="423.339844"/>
      <use xlink:href="#DejaVuSans-20" x="462.548828"/>
      <use xlink:href="#DejaVuSans-33" x="494.335938"/>
      <use xlink:href="#DejaVuSans-20" x="557.958984"/>
      <use xlink:href="#DejaVuSans-71" x="589.746094"/>
      <use xlink:href="#DejaVuSans-75" x="653.222656"/>
      <use xlink:href="#DejaVuSans-62" x="716.601562"/>
      <use xlink:href="#DejaVuSans-69" x="780.078125"/>
      <use xlink:href="#DejaVuSans-74" x="807.861328"/>
      <use xlink:href="#DejaVuSans-73" x="847.070312"/>
     </g>
    </g>
    <g id="line2d_18">
     <path d="M 287.805938 83.926688 
L 297.805938 83.926688 
L 307.805938 83.926688 
" style="fill: none; stroke: #2ca02c; stroke-width: 1.5; stroke-linecap: square"/>
    </g>
    <g id="text_16">
     <!-- Pmaxs at 4 qubits -->
     <g transform="translate(315.805938 87.426688) scale(0.1 -0.1)">
      <use xlink:href="#DejaVuSans-50"/>
      <use xlink:href="#DejaVuSans-6d" x="60.302734"/>
      <use xlink:href="#DejaVuSans-61" x="157.714844"/>
      <use xlink:href="#DejaVuSans-78" x="218.994141"/>
      <use xlink:href="#DejaVuSans-73" x="278.173828"/>
      <use xlink:href="#DejaVuSans-20" x="330.273438"/>
      <use xlink:href="#DejaVuSans-61" x="362.060547"/>
      <use xlink:href="#DejaVuSans-74" x="423.339844"/>
      <use xlink:href="#DejaVuSans-20" x="462.548828"/>
      <use xlink:href="#DejaVuSans-34" x="494.335938"/>
      <use xlink:href="#DejaVuSans-20" x="557.958984"/>
      <use xlink:href="#DejaVuSans-71" x="589.746094"/>
      <use xlink:href="#DejaVuSans-75" x="653.222656"/>
      <use xlink:href="#DejaVuSans-62" x="716.601562"/>
      <use xlink:href="#DejaVuSans-69" x="780.078125"/>
      <use xlink:href="#DejaVuSans-74" x="807.861328"/>
      <use xlink:href="#DejaVuSans-73" x="847.070312"/>
     </g>
    </g>
    <g id="line2d_19">
     <path d="M 287.805938 98.604813 
L 297.805938 98.604813 
L 307.805938 98.604813 
" style="fill: none; stroke: #d62728; stroke-width: 1.5; stroke-linecap: square"/>
    </g>
    <g id="text_17">
     <!-- Pmaxs at 5 qubits -->
     <g transform="translate(315.805938 102.104813) scale(0.1 -0.1)">
      <defs>
       <path id="DejaVuSans-35" d="M 691 4666 
L 3169 4666 
L 3169 4134 
L 1269 4134 
L 1269 2991 
Q 1406 3038 1543 3061 
Q 1681 3084 1819 3084 
Q 2600 3084 3056 2656 
Q 3513 2228 3513 1497 
Q 3513 744 3044 326 
Q 2575 -91 1722 -91 
Q 1428 -91 1123 -41 
Q 819 9 494 109 
L 494 744 
Q 775 591 1075 516 
Q 1375 441 1709 441 
Q 2250 441 2565 725 
Q 2881 1009 2881 1497 
Q 2881 1984 2565 2268 
Q 2250 2553 1709 2553 
Q 1456 2553 1204 2497 
Q 953 2441 691 2322 
L 691 4666 
z
" transform="scale(0.015625)"/>
      </defs>
      <use xlink:href="#DejaVuSans-50"/>
      <use xlink:href="#DejaVuSans-6d" x="60.302734"/>
      <use xlink:href="#DejaVuSans-61" x="157.714844"/>
      <use xlink:href="#DejaVuSans-78" x="218.994141"/>
      <use xlink:href="#DejaVuSans-73" x="278.173828"/>
      <use xlink:href="#DejaVuSans-20" x="330.273438"/>
      <use xlink:href="#DejaVuSans-61" x="362.060547"/>
      <use xlink:href="#DejaVuSans-74" x="423.339844"/>
      <use xlink:href="#DejaVuSans-20" x="462.548828"/>
      <use xlink:href="#DejaVuSans-35" x="494.335938"/>
      <use xlink:href="#DejaVuSans-20" x="557.958984"/>
      <use xlink:href="#DejaVuSans-71" x="589.746094"/>
      <use xlink:href="#DejaVuSans-75" x="653.222656"/>
      <use xlink:href="#DejaVuSans-62" x="716.601562"/>
      <use xlink:href="#DejaVuSans-69" x="780.078125"/>
      <use xlink:href="#DejaVuSans-74" x="807.861328"/>
      <use xlink:href="#DejaVuSans-73" x="847.070312"/>
     </g>
    </g>
   </g>
  </g>
 </g>
 <defs>
  <clipPath id="pb6dce0059f">
   <rect x="57.6" y="41.472" width="357.12" height="266.112"/>
  </clipPath>
 </defs>
</svg>
